# xmcd
#
# Track frame offsets:
#	150
#	18375
#	31135
#	50925
#	62250
#	76125
#	91725
#	105300
#	117300
#	135525
#	155775
#	165825
#
# Disc length: 2424 seconds
#
# Revision: 1
# Processed by: cddbd v1.5.2PL0 Copyright (c) Steve Scherf et al.
# Submitted via: audiograbber 1.83.01
#
DISCID=8609760c
DTITLE=Hottletts - Once again
DYEAR=1900
DGENRE=Pop
TTITLE0=Hottletts - Sabra Dance
TTITLE1=Hottletts - Mona Lisa
TTITLE2=Hottletts - Greensleeves
TTITLE3=Hottletts - I gotta know
TTITLE4=Hottletts - Teen scene
TTITLE5=Hottletts - Truck drivin'man
TTITLE6=Hottletts - Baya twist
TTITLE7=Hottletts - Have I told you lately
TTITLE8=Hottletts - Maria Elena
TTITLE9=Hottletts - Pretty woman
TTITLE10=Hottletts - Long long ago
TTITLE11=Hottletts - Midnight special
EXTD=
EXTT0=
EXTT1=
EXTT2=
EXTT3=
EXTT4=
EXTT5=
EXTT6=
EXTT7=
EXTT8=
EXTT9=
EXTT10=
EXTT11=
PLAYORDER=
